/* Made with Gimp */
#define bitmap_width 16
#define bitmap_height 15
#define kill_x_hot 8
#define kill_y_hot 8
static char bitmap_bits[] = {
   0xff, 0xff, 0xff, 0xff, 0xcf, 0xf3, 0xd7, 0xeb, 0xeb, 0xd7, 0xf5, 0xaf,
   0x02, 0x40, 0xfe, 0x7f, 0x02, 0x40, 0xf5, 0xaf, 0xeb, 0xd7, 0xd7, 0xeb,
   0xcf, 0xf3, 0xff, 0xff, 0xff, 0xff };
