/* Made with Gimp */
#define bitmap_width 15
#define bitmap_height 15
#define kill_x_hot 7
#define kill_y_hot 7
static char bitmap_bits[] = {
   0x00, 0x7e, 0xfe, 0x7e, 0x06, 0x7e, 0xea, 0x7f, 0xd2, 0x7f, 0xaa, 0x7f,
   0x5a, 0x0f, 0xba, 0x2e, 0x78, 0x2d, 0xff, 0x2a, 0xff, 0x25, 0xff, 0x2b,
   0x3f, 0x30, 0xbf, 0x3f, 0x3f, 0x00 };
