#define pointer_width 20
#define pointer_height 23
#define pointer_x_hot 0
#define pointer_y_hot 0
static unsigned char pointer_bits[] = {
   0x00, 0x00, 0xf0, 0x01, 0x00, 0xf0, 0x06, 0x00, 0xf0, 0x0e, 0x00, 0xf0,
   0x56, 0x00, 0xf0, 0xad, 0x00, 0xf0, 0x5a, 0x05, 0xf0, 0xbc, 0x0a, 0xf0,
   0x58, 0x55, 0xf2, 0xb4, 0xaa, 0xf1, 0x68, 0xd5, 0xf0, 0xf0, 0x6a, 0xf0,
   0x60, 0x95, 0xf2, 0xd0, 0x3a, 0xf1, 0xa0, 0x7d, 0xf0, 0xc0, 0xf7, 0xf0,
   0x80, 0xeb, 0xf1, 0x40, 0xd5, 0xff, 0x80, 0xaa, 0xf7, 0x00, 0x45, 0xf3,
   0x00, 0x82, 0xf2, 0x00, 0x01, 0xf5, 0x00, 0x00, 0xf2};
