#define bomb_width 16
#define bomb_height 16
#define cursor_x_hot 1
#define cursor_y_hot 1
static char bomb_bits[] = {
   0xe0, 0x07, 0x38, 0x1c, 0x0c, 0x30, 0xc6, 0x63, 0x72, 0x4e, 0x13, 0xc8,
   0x99, 0x99, 0x49, 0x92, 0x49, 0x92, 0x99, 0x99, 0x13, 0xc8, 0x72, 0x4e,
   0xc6, 0x63, 0x0c, 0x30, 0x38, 0x1c, 0xe0, 0x07 };
