#define resizehwl_xbm_width 16
#define resizehwl_xbm_height 16
#define cursor_x_hot 1
#define cursor_y_hot 1
static char resizehwl_xbm_bits[] = {
   0x80, 0x01, 0x40, 0x02, 0x20, 0x04, 0x10, 0x08, 0x60, 0x06, 0x40, 0x02,
   0x40, 0x02, 0x40, 0x02, 0x40, 0x02, 0x40, 0x02, 0x40, 0x02, 0x60, 0x06,
   0x10, 0x08, 0x20, 0x04, 0x40, 0x02, 0x80, 0x01 };
