#define resizehwr_xbm_width 16
#define resizehwr_xbm_height 16
#define cursor_x_hot 1
#define cursor_y_hot 1
static char resizehwr_xbm_bits[] = {
   0x00, 0x00, 0x00, 0x7c, 0x00, 0x82, 0x00, 0x84, 0x00, 0x84, 0x00, 0x82,
   0x00, 0xb1, 0x80, 0x48, 0x40, 0x04, 0x24, 0x02, 0x1a, 0x01, 0x82, 0x00,
   0x42, 0x00, 0x42, 0x00, 0x82, 0x00, 0xfc, 0x00 };
