#define bitmap_width 16
#define bitmap_height 16
#define cursor_x_hot 1
#define cursor_y_hot 1
static char bitmap_bits[] = {
   0x00, 0x00, 0x3e, 0x00, 0x41, 0x00, 0x21, 0x00, 0x21, 0x00, 0x41, 0x00,
   0x8d, 0x00, 0x12, 0x01, 0x20, 0x02, 0x40, 0x24, 0x80, 0x58, 0x00, 0x41,
   0x00, 0x42, 0x00, 0x42, 0x00, 0x41, 0x00, 0x3f };
