#define bitmap_width 16
#define bitmap_height 16
#define cursor_x_hot 1
#define cursor_y_hot 1
static char bitmap_bits[] = {
   0x00, 0x00, 0xfe, 0x7f, 0x02, 0x40, 0xfe, 0x7f, 0xaa, 0x2a, 0x00, 0x00,
   0xfe, 0x7f, 0x02, 0x40, 0xfe, 0x7f, 0xaa, 0x2a, 0x00, 0x00, 0xfe, 0x7f,
   0x02, 0x40, 0xfe, 0x7f, 0xaa, 0x2a, 0x00, 0x00 };
