#define menu_width 16
#define menu_height 16
#define menu_x_hot 16
#define menu_y_hot 1
static char menu_bits[] = {
   0x00, 0x00, 0x00, 0x60, 0x00, 0x78, 0x00, 0x3e, 0x80, 0x3f, 0xe0, 0x1f,
   0xf8, 0x1f, 0x80, 0x0f, 0xc0, 0x0f, 0xe0, 0x06, 0x70, 0x06, 0x38, 0x02,
   0x1c, 0x02, 0x0e, 0x00, 0x04, 0x00, 0x00, 0x00 };
