#define resize_h_width 16
#define resize_h_height 16
#define resize_h_x_hot 8
#define resize_h_y_hot 8
static char resize_h_bits[] = {
   0x00, 0x00, 0x00, 0x00, 0x00, 0x00, 0x00, 0x00, 0x10, 0x08, 0x18, 0x18,
   0xfc, 0x3f, 0xfe, 0x7f, 0xfc, 0x3f, 0x18, 0x18, 0x10, 0x08, 0x00, 0x00,
   0x00, 0x00, 0x00, 0x00, 0x00, 0x00, 0x00, 0x00 };
