/* Created with The GIMP */
#define morebuttons_width 16
#define morebuttons_height 16
#define morebuttons_x_hot 1
#define morebuttons_y_hot 1
static unsigned char morebuttons_bits[] = {
   0x00, 0x00, 0x7e, 0x37, 0x7e, 0x37, 0x7e, 0x37, 0x7e, 0x37, 0x7e, 0x37,
   0x7e, 0x37, 0x7e, 0x37, 0x7e, 0x37, 0x7e, 0x37, 0x7e, 0x37, 0x7e, 0x37,
   0x00, 0x00, 0x00, 0x00, 0x00, 0x00, 0x00, 0x00 };
