#define resize_width 16
#define resize_height 16
#define resize_x_hot 8
#define resize_y_hot 8
static char resize_bits[] = {
   0x00, 0x00, 0x00, 0x00, 0x00, 0x00, 0x00, 0x00, 0x00, 0x07, 0x80, 0x0f,
   0x80, 0x18, 0x80, 0x30, 0xc0, 0x20, 0x44, 0x60, 0x78, 0x20, 0x78, 0x00,
   0x30, 0x00, 0x00, 0x00, 0x00, 0x00, 0x00, 0x00 };
