#define resize_v_width 16
#define resize_v_height 16
#define resize_v_x_hot 8
#define resize_v_y_hot 8
static char bitmap_bits[] = {
   0x00, 0x00, 0x80, 0x00, 0xc0, 0x01, 0xe0, 0x03, 0xf0, 0x07, 0xc0, 0x01,
   0xc0, 0x01, 0xc0, 0x01, 0xc0, 0x01, 0xc0, 0x01, 0xc0, 0x01, 0xf0, 0x07,
   0xe0, 0x03, 0xc0, 0x01, 0x80, 0x00, 0x00, 0x00 };
