#define resize_nesw_width 16
#define resize_nesw_height 16
#define resize_nesw_x_hot 8
#define resize_nesw_y_hot 8
static char resize_tr_bits[] = {
   0x00, 0x00, 0x00, 0x7e, 0x00, 0x7c, 0x00, 0x78, 0x00, 0x7c, 0x00, 0x6e,
   0x00, 0x47, 0x80, 0x03, 0xc0, 0x01, 0xe2, 0x00, 0x76, 0x00, 0x3e, 0x00,
   0x1e, 0x00, 0x3e, 0x00, 0x7e, 0x00, 0x00, 0x00 };
