/* Made with GIMP */
#define bitmap_width 25
#define bitmap_height 25
#define max_x_hot 1
#define max_y_hot 6
static char bitmap_bits[] = {
   0x00, 0x00, 0x00, 0x00, 0x00, 0xe0, 0x07, 0x00, 0x00, 0xe0, 0x07, 0x00,
   0x00, 0x20, 0xfc, 0x00, 0x00, 0x20, 0xfc, 0x00, 0x03, 0x20, 0x84, 0x00,
   0x0d, 0xe0, 0x87, 0x00, 0x32, 0x80, 0x80, 0x00, 0xc6, 0x80, 0x80, 0x00,
   0x0c, 0x83, 0x80, 0x00, 0x14, 0x8c, 0xff, 0x00, 0x28, 0x30, 0x00, 0x00,
   0x58, 0xc0, 0x00, 0x00, 0xb0, 0x80, 0x00, 0x00, 0x50, 0x41, 0x00, 0x00,
   0xa0, 0x22, 0x00, 0x00, 0x60, 0x45, 0x00, 0x00, 0xc0, 0x8a, 0x00, 0x00,
   0x40, 0x55, 0x00, 0x00, 0x80, 0x2a, 0x00, 0x00, 0x80, 0x11, 0x00, 0x00,
   0x00, 0x00, 0x00, 0x00, 0x00, 0x00, 0x00, 0x00, 0x00, 0x00, 0x00, 0x00,
   0x00, 0x00, 0x00, 0x00 };
