/* Made with GIMP */
#define move_width 25
#define move_height 25
#define move_x_hot 1
#define move_y_hot 6
static char move_bits[] = {
   0x00, 0x00, 0x00, 0x00, 0x00, 0x00, 0x04, 0x00, 0x00, 0x00, 0x0a, 0x00,
   0x00, 0x00, 0x11, 0x00, 0x00, 0x00, 0x0e, 0x00, 0x03, 0x40, 0x40, 0x00,
   0x0d, 0xa0, 0xa4, 0x00, 0x32, 0x90, 0x2a, 0x01, 0xc6, 0xa0, 0xa4, 0x00,
   0x0c, 0x43, 0x40, 0x00, 0x14, 0x0c, 0x0e, 0x00, 0x28, 0x30, 0x11, 0x00,
   0x58, 0xc0, 0x0a, 0x00, 0xb0, 0x80, 0x04, 0x00, 0x50, 0x41, 0x01, 0x00,
   0xa0, 0x22, 0x00, 0x00, 0x60, 0x45, 0x00, 0x00, 0xc0, 0x8a, 0x00, 0x00,
   0x40, 0x55, 0x00, 0x00, 0x80, 0x2a, 0x00, 0x00, 0x80, 0x11, 0x00, 0x00,
   0x00, 0x00, 0x00, 0x00, 0x00, 0x00, 0x00, 0x00, 0x00, 0x00, 0x00, 0x00,
   0x00, 0x00, 0x00, 0x00 };
