#define blank_width 25
#define blank_height 25
static unsigned char blank_bits[] = {
  0x00, 0x00, 0x00, 0x00, 0x00, 0x00, 0x00, 0x00, 0x00, 0x00, 0x00, 0x00,
  0x00, 0x00, 0x00, 0x00, 0x00, 0x00, 0x00, 0x00, 0x00, 0x00, 0x00, 0x00,
  0x06, 0x00, 0x00, 0x00, 0x1e, 0x00, 0x00, 0x00, 0x7c, 0x00, 0x00, 0x00,
  0xfc, 0x01, 0x00, 0x00, 0xf8, 0x07, 0x00, 0x00, 0xf8, 0x1f, 0x00, 0x00,
  0xf0, 0x01, 0x00, 0x00, 0xf0, 0x03, 0x00, 0x00, 0x60, 0x07, 0x00, 0x00,
  0x60, 0x0e, 0x00, 0x00, 0x40, 0x1c, 0x00, 0x00, 0x40, 0x38, 0x00, 0x00,
  0x00, 0x70, 0x00, 0x00, 0x00, 0x20, 0x00, 0x00, 0x00, 0x00, 0x00, 0x00,
  0x00, 0x00, 0x00, 0x00, 0x00, 0x00, 0x00, 0x00, 0x00, 0x00, 0x00, 0x00,
  0x00, 0x00, 0x00, 0x00, };
