#define def_width 16
#define def_height 16
#define def_x_hot 1
#define def_y_hot 1
static unsigned char def_bits[] = {
  0x00, 0x00, 0x06, 0x00, 0x1e, 0x00, 0x7c, 0x00, 0xfc, 0x01, 0xf8, 0x07,
  0xf8, 0x1f, 0xf0, 0x01, 0xf0, 0x03, 0x60, 0x07, 0x60, 0x0e, 0x40, 0x1c,
  0x40, 0x38, 0x00, 0x70, 0x00, 0x20, 0x00, 0x00, };
