#define move_width 25
#define move_height 25
#define move_x_hot 1
#define move_y_hot 7
static unsigned char move_bits[] = {
  0x00, 0x00, 0x00, 0x00, 0x00, 0x00, 0x02, 0x00, 0x00, 0x00, 0x07, 0x00,
  0x00, 0x80, 0x0f, 0x00, 0x00, 0x00, 0x07, 0x00, 0x00, 0x20, 0x20, 0x00,
  0x06, 0x70, 0x72, 0x00, 0x1e, 0x78, 0xf7, 0x00, 0x7c, 0x70, 0x72, 0x00,
  0xfc, 0x21, 0x20, 0x00, 0xf8, 0x07, 0x07, 0x00, 0xf8, 0x9f, 0x0f, 0x00,
  0xf0, 0x01, 0x07, 0x00, 0xf0, 0x03, 0x02, 0x00, 0x60, 0x07, 0x00, 0x00,
  0x60, 0x0e, 0x00, 0x00, 0x40, 0x1c, 0x00, 0x00, 0x40, 0x38, 0x00, 0x00,
  0x00, 0x70, 0x00, 0x00, 0x00, 0x20, 0x00, 0x00, 0x00, 0x00, 0x00, 0x00,
  0x00, 0x00, 0x00, 0x00, 0x00, 0x00, 0x00, 0x00, 0x00, 0x00, 0x00, 0x00,
  0x00, 0x00, 0x00, 0x00, };
