#define cursor_move_width 20
#define cursor_move_height 20
#define bitmap_x_hot 9
#define bitmap_y_hot 9
static unsigned char cursor_move_bits[] = {
  0x00, 0x02, 0x00, 0x00, 0x05, 0x00, 0x80, 0x08, 0x00, 0x40, 0x10, 0x00,
  0xc0, 0x1f, 0x00, 0x00, 0x00, 0x00, 0x18, 0xc0, 0x00, 0x14, 0x40, 0x01,
  0x12, 0x40, 0x02, 0x11, 0x40, 0x04, 0x12, 0x40, 0x02, 0x14, 0x40, 0x01,
  0x18, 0xc0, 0x00, 0x00, 0x00, 0x00, 0xc0, 0x1f, 0x00, 0x40, 0x10, 0x00,
  0x80, 0x08, 0x00, 0x00, 0x05, 0x00, 0x00, 0x02, 0x00, 0x00, 0x00, 0x00,
  };
