#define resize_width 16
#define resize_height 16
#define move_x_hot 7
#define move_y_hot 7
static char resize_bits[] = {
 0x00,0x00,0x80,0x01,0xc0,0x03,0xe0,0x07,0x80,0x01,0x88,0x11,0x8c,0x31,0xfe,
 0x7f,0xfe,0x7f,0x8c,0x31,0x88,0x11,0x80,0x01,0xe0,0x07,0xc0,0x03,0x80,0x01,
 0x00,0x00};
