#define resize_tr_width 20
#define resize_tr_height 20
#define resize_tr_y_hot 10
#define resize_tr_x_hot 10
static char resize_tr_bits[] = {
   0x00, 0x00, 0x00, 0x00, 0xc0, 0x07, 0x00, 0x80, 0x07, 0x00, 0xc0, 0x07,
   0x00, 0xc0, 0x07, 0x00, 0xe0, 0x04, 0x00, 0x70, 0x00, 0x00, 0x38, 0x00,
   0x00, 0x1c, 0x00, 0x00, 0x0e, 0x00, 0x00, 0x07, 0x00, 0x80, 0x03, 0x00,
   0xc0, 0x01, 0x00, 0xe0, 0x00, 0x00, 0x72, 0x00, 0x00, 0x3e, 0x00, 0x00,
   0x3e, 0x00, 0x00, 0x1e, 0x00, 0x00, 0x3e, 0x00, 0x00, 0x00, 0x00, 0x00 };
