#define resize_h_width 20
#define resize_h_height 20
#define resize_h_x_hot 10
#define resize_h_y_hot 10
static char resize_h_bits[] = {
   0x00, 0x00, 0x00, 0x00, 0x00, 0x00, 0x00, 0x00, 0x00, 0x00, 0x00, 0x00,
   0x00, 0x00, 0x00, 0x00, 0x00, 0x00, 0x00, 0x00, 0x00, 0x08, 0x00, 0x01,
   0xf8, 0xff, 0x01, 0xfc, 0xff, 0x03, 0xfc, 0xff, 0x03, 0xf8, 0xff, 0x01,
   0x08, 0x00, 0x01, 0x00, 0x00, 0x00, 0x00, 0x00, 0x00, 0x00, 0x00, 0x00,
   0x00, 0x00, 0x00, 0x00, 0x00, 0x00, 0x00, 0x00, 0x00, 0x00, 0x00, 0x00 };
