#define cursor_width 16
#define cursor_height 16
#define cursor_x_hot 1
#define cursor_y_hot 1
static unsigned char cursor_bits[] = {
  0x00, 0x00, 0x02, 0x00, 0x0c, 0x00, 0x3c, 0x00, 0xf8, 0x00, 0xf8, 0x03, 
  0xf0, 0x0f, 0xf0, 0x3f, 0xe0, 0x7f, 0xe0, 0x3f, 0xc0, 0x1f, 0xc0, 0x3f, 
  0x80, 0x7f, 0x80, 0x3b, 0x00, 0x11, 0x00, 0x00, };
