#define maximize_width 16
#define maximize_height 16
#define maximize_x_hot 8
#define maximize_y_hot 8
static char maximize_bits[] = {
  0x01, 0x00, 0x7d, 0x7e, 0x01, 0x41, 0x81, 0x43, 0x01, 0x41, 0xe1, 0x47, 
  0xa1, 0x46, 0x69, 0x15, 0xbd, 0x3e, 0x69, 0x55, 0xe1, 0x47, 0x81, 0x40, 
  0xc1, 0x41, 0x81, 0x40, 0x01, 0x00, 0xff, 0xff, };
