#define kill_width 25
#define kill_height 25
#define kill_x_hot 1
#define kill_y_hot 6
static unsigned char kill_bits[] = {
  0x00, 0x00, 0x00, 0x00, 0x00, 0x00, 0x00, 0x00, 0x00, 0x00, 0x00, 0x00,
  0x00, 0x30, 0x30, 0x00, 0x00, 0x70, 0x38, 0x00, 0x00, 0xe0, 0x1c, 0x00,
  0x06, 0xc0, 0x0f, 0x00, 0x1e, 0x80, 0x07, 0x00, 0x7c, 0x80, 0x07, 0x00,
  0xfc, 0xc1, 0x0f, 0x00, 0xf8, 0xe7, 0x1c, 0x00, 0xf8, 0x77, 0x38, 0x00,
  0xf0, 0x31, 0x30, 0x00, 0xf0, 0x03, 0x00, 0x00, 0x60, 0x07, 0x00, 0x00,
  0x60, 0x0e, 0x00, 0x00, 0x40, 0x1c, 0x00, 0x00, 0x40, 0x38, 0x00, 0x00,
  0x00, 0x70, 0x00, 0x00, 0x00, 0x20, 0x00, 0x00, 0x00, 0x00, 0x00, 0x00,
  0x00, 0x00, 0x00, 0x00, 0x00, 0x00, 0x00, 0x00, 0x00, 0x00, 0x00, 0x00,
  0x00, 0x00, 0x00, 0x00, };
