#define move_width 25
#define move_height 25
#define move_x_hot 1
#define move_y_hot 6
static unsigned char move_bits[] = {
  0x00, 0x00, 0x00, 0x00, 0x00, 0x00, 0x03, 0x00, 0x00, 0x80, 0x07, 0x00,
  0x00, 0xc0, 0x0f, 0x00, 0x00, 0x00, 0x03, 0x00, 0x00, 0x10, 0x23, 0x00,
  0x06, 0x18, 0x63, 0x00, 0x1e, 0xfc, 0xff, 0x00, 0x7c, 0xfc, 0xff, 0x00,
  0xfc, 0x19, 0x63, 0x00, 0xf8, 0x13, 0x23, 0x00, 0xf8, 0x07, 0x03, 0x00,
  0xf0, 0xc1, 0x0f, 0x00, 0xf0, 0x83, 0x07, 0x00, 0x60, 0x07, 0x03, 0x00,
  0x60, 0x0e, 0x00, 0x00, 0x40, 0x1c, 0x00, 0x00, 0x40, 0x38, 0x00, 0x00,
  0x00, 0x70, 0x00, 0x00, 0x00, 0x20, 0x00, 0x00, 0x00, 0x00, 0x00, 0x00,
  0x00, 0x00, 0x00, 0x00, 0x00, 0x00, 0x00, 0x00, 0x00, 0x00, 0x00, 0x00,
  0x00, 0x00, 0x00, 0x00, };
