/* XPM */
static char *magick[] = {
/* columns rows colors chars-per-pixel */
"51 21 235 2",
"   c Gray0",
".  c #070907",
"X  c #080b09",
"o  c #111712",
"O  c #121612",
"+  c #131913",
"@  c #131a13",
"#  c #131a14",
"$  c #151b15",
"%  c #141c15",
"&  c #151d16",
"*  c #161d17",
"=  c #171e17",
"-  c #171e18",
";  c #181f19",
":  c #172119",
">  c #182019",
",  c #19211a",
"<  c #19221b",
"1  c #1a211b",
"2  c #1a221b",
"3  c #1b231c",
"4  c #1a241c",
"5  c #1c241d",
"6  c #1d251e",
"7  c #1e271f",
"8  c #1e2720",
"9  c #1f2920",
"0  c #222922",
"q  c #202a22",
"w  c #232f25",
"e  c #233024",
"r  c #253125",
"t  c #243326",
"y  c #263327",
"u  c #273329",
"i  c #273629",
"p  c #29352a",
"a  c #2b392d",
"s  c #2b3a2e",
"d  c #2b3c2d",
"f  c #2c392d",
"g  c #2d392e",
"h  c #2c3a2d",
"j  c #2c3b2f",
"k  c #2d3d2f",
"l  c #2d3e2f",
"z  c #2e3c30",
"x  c #2f3f31",
"c  c #2f3f32",
"v  c #303f31",
"b  c #323e33",
"n  c #2f4032",
"m  c #314133",
"M  c #314333",
"N  c #324133",
"B  c #314334",
"V  c #334335",
"C  c #334435",
"Z  c #334437",
"A  c #334637",
"S  c #344537",
"D  c #344737",
"F  c #354539",
"G  c #344738",
"H  c #364639",
"J  c #354838",
"K  c #364939",
"L  c #37483a",
"P  c #374a3a",
"I  c #38473a",
"U  c #39493b",
"Y  c #384b38",
"T  c #384b3b",
"R  c #39493c",
"E  c #3a493c",
"W  c #384f3b",
"Q  c #394c3c",
"!  c #3b4d3d",
"~  c #3b4f3e",
"^  c #3c4e3e",
"/  c #3b503d",
"(  c #3d513f",
")  c #3c533f",
"_  c #3f513f",
"`  c #3f523f",
"'  c #3e5141",
"]  c #3e5341",
"[  c #3d5440",
"{  c #3d5442",
"}  c #3f5441",
"|  c #3f5443",
" . c #3f5842",
".. c #405340",
"X. c #405441",
"o. c #405641",
"O. c #415743",
"+. c #425441",
"@. c #425542",
"#. c #425643",
"$. c #405544",
"%. c #415645",
"&. c #425744",
"*. c #425746",
"=. c #445643",
"-. c #445744",
";. c #415943",
":. c #415844",
">. c #425945",
",. c #435847",
"<. c #425a45",
"1. c #435b46",
"2. c #435c47",
"3. c #445945",
"4. c #445946",
"5. c #455a47",
"6. c #465845",
"7. c #465946",
"8. c #465a47",
"9. c #455d47",
"0. c #435a48",
"q. c #445948",
"w. c #455a49",
"e. c #455b4a",
"r. c #465b48",
"t. c #465b4a",
"y. c #455c48",
"u. c #455e48",
"i. c #475c49",
"p. c #475c4b",
"a. c #465e48",
"s. c #475e4a",
"d. c #495b48",
"f. c #485b4b",
"g. c #4a5a4d",
"h. c #485c49",
"j. c #485d4a",
"k. c #485f4b",
"l. c #4b5d4a",
"z. c #4a5e4b",
"x. c #485d4c",
"c. c #495e4d",
"v. c #4a5f4c",
"b. c #47604b",
"n. c #47604c",
"m. c #48614b",
"M. c #4a614b",
"N. c #49604c",
"B. c #49624c",
"V. c #4a614d",
"C. c #4b614e",
"Z. c #4a624d",
"A. c #4b624e",
"S. c #49654e",
"D. c #4a644d",
"F. c #4b644e",
"G. c #4a664f",
"H. c #4d614e",
"J. c #4c634f",
"K. c #4c654f",
"L. c #4c664f",
"P. c #4b6750",
"I. c #4d6151",
"U. c #4e6350",
"Y. c #4c6550",
"T. c #4d6650",
"R. c #4e6551",
"E. c #4e6751",
"W. c #4f6752",
"Q. c #4c6851",
"!. c #4d6952",
"~. c #4e6851",
"^. c #4f6852",
"/. c #4e6a53",
"(. c #4f6b54",
"). c #506753",
"_. c #506953",
"`. c #506a53",
"'. c #506954",
"]. c #516a54",
"[. c #526b55",
"{. c #526b56",
"}. c #506c55",
"|. c #516d56",
" X c #536c56",
".X c #526e57",
"XX c #556d57",
"oX c #536f58",
"OX c #556d58",
"+X c #546f58",
"@X c #566d59",
"#X c #566f5a",
"$X c #5a695d",
"%X c #5a6d5d",
"&X c #547059",
"*X c #55715a",
"=X c #56715a",
"-X c #59725c",
";X c #687c6b",
":X c #738375",
">X c #758377",
",X c #748477",
"<X c #758478",
"1X c #778579",
"2X c #768778",
"3X c #77867a",
"4X c #78877b",
"5X c #7a877c",
"6X c #79887b",
"7X c #798b7b",
"8X c #7a8b7b",
"9X c #7a8b7d",
"0X c #7b8c7d",
"qX c #7c897c",
"wX c #7c897e",
"eX c #7d8b7e",
"rX c #7d8f80",
"tX c #7f8d80",
"yX c #7f8e81",
"uX c #7f9383",
"iX c #808c81",
"pX c #818f83",
"aX c #828f82",
"sX c #829083",
"dX c #809182",
"fX c #829184",
"gX c #809483",
"hX c #819584",
"jX c #859386",
"kX c #849284",
"lX c #859487",
"zX c #869487",
"xX c #879588",
"cX c #889689",
"vX c #89988a",
/* pixels */
"iXiXwX1X>X>X,X1X1X1X1X4X6X6X4X1X1X1X4X4X4X4X1X1X1X:X,X1X6X7X0X0X7X6X7X7X0XuXsXhXuXuXgXuXuXhXhXuXhX;X%X",
"iXw.w.w.4.,.w.w.w.*.*.*.,.*.w.w.,.,.,.w.w.*.*.| ' ' *.i.i.i.4.i.9.,.9.V.K.^.E.E.^.^.^.^. X&XoX(.^.^.A ",
"xXj.j.j.w.4.w.w.w.,.,.w.w.c.i.w.w.w.,.*.*.*.,.*.| *.i.i.,.,.i.m.i.m.V.E.E.G.V.E.^.^.(. X XQ.G.G.^.^.~ ",
"cXw.w.w.4.4.*.w.w.*.*.*.w.i.i.w.w.w.,.*.*.*.w.,.,.4.j.j.i.j.V.V.V.V.V.V.G.E.{. X.X(.^.^.P.P.(.=X&X&XL ",
"fX9.4.4.4.,.| ,.,.*.*.w.c.c.w.*.*.*.*.*.*.w.w.w.i.j.c.j.m.i.i.i.j.V.V.G.E.{.{.^.G.G.G.^.(.(.(. X^.^.S ",
"lXi.i.i.u - - - ,.w.w.L - - = | *.B = = ; < ; ; p i.4.= = y 2.n.G.~ < a (.{.g < < / K.^.3 3 3 E.^.E.B ",
"jXw.w.w.;       S w.0.=       j.j.N             = / |       Z ^.{.S   < P.G.<     Z K.K.      m.G.G.B ",
"lX4.4.4.=       5 w.w.X       I.V.z     + W / | ,.i.H.      X ~ E.B   < V.G.<     N m.b.      K.V.V.d ",
"yXO.O.O.=         I.w.        | W y     = ,.j.E.E.).).        O V.N   < V.j.<     n i.j.      ,.,.;.k ",
"yX4.4.4.-   O     b 8 . .     W W i     X < 3 < E.E.E.    X     p b   < i.4.=     z m.m.      ;. . .k ",
"wXi.i.i.;   0 X   <   + #     O.,.z             E.H.V.    u     X 5   = O.O.=     N m.4.      ;.i.i.~ ",
"sXH.H.H.;   g $       g -     V.^.L     < E.G.i.i.,.4.    j.-         = f.j.;     g O.|       XX-X-X' ",
"jXO.O.O.@   y e       U <     OX{.S     : b.b.i.i.i.c.    *.L         < V.i.=     d i.V.      =XoXOXL ",
"qXY Y Y @   y B       OX5     V.i.k     < i.w.w.f.w.,.    | *.H       - | | a     O ^.a     4  X X XL ",
">X| | | ;   n E.5 5 b OX<     w.j.N               4.4.    4.4.V.0     = i.V.{.z           +  . X(.(.~ ",
"sXE.E.E.a < ' {.OX XK.,.y = = 4.4.S = = = = ; = ; j.4.= = ,.i.i.` 9 < z OXOX{.E.Z w < < w n.(.(. X XG ",
"vXV.V.V.K.E.{.H.i.,.O.*.,.4.,.*.O.O.O.-.4.7.4.4.4.O.O.,.i.m.V.K._.OXOX XE.G.E.^.Q.G.G.^. X X X(.(.(.L ",
"iXH.H.H.j.-.` O.*.4.j.4.O.O.| | O.O.4.f.j.j.j.i.V.K.V.m.K._.XX{.^.E.E.E.E.^.E.P.G.G.^.(. X(.^.(.^.^.L ",
"iXO.....` ` 4.f.j.f.=.` ` O.O.4.j.H.H.V.V.m.j.G.V.m.m._.XX_.m.b.K._.{.^.G.G.^.^.^.^.(. X X X^.^.Q.Q.L ",
"5X*.*.*.4.w.4.w.4.=.4.j.H.m.V.V.V.9.,.i.V.V.i.9.V.^.{.E.V.m.V.E.{.XX{.^.^._.^.^.G.^.^.^.^.G.G.G.K.G.S ",
"$X$Xg.Z H H I E E U L H B N N N N Z S J Z M Z U U U L S L U ~ ~ ^ ^ ~ U U W U L Z S J J L J S S L S Z "
};
