/* XPM */
static char *magick[] = {
/* columns rows colors chars-per-pixel */
"51 21 229 2",
"   c Gray0",
".  c #070907",
"X  c #080b09",
"o  c #111712",
"O  c #121612",
"+  c #131913",
"@  c #131a13",
"#  c #131a14",
"$  c #151b15",
"%  c #141c15",
"&  c #151d16",
"*  c #161d17",
"=  c #171e17",
"-  c #171e18",
";  c #181f19",
":  c #172119",
">  c #182019",
",  c #19211a",
"<  c #19221b",
"1  c #1a211b",
"2  c #1a221b",
"3  c #1b231c",
"4  c #1a241c",
"5  c #1c241d",
"6  c #1d251e",
"7  c #1e271f",
"8  c #1e2720",
"9  c #1f2920",
"0  c #222922",
"q  c #202a22",
"w  c #232f25",
"e  c #233024",
"r  c #253125",
"t  c #243326",
"y  c #263327",
"u  c #273329",
"i  c #273629",
"p  c #29352a",
"a  c #29372b",
"s  c #2b382b",
"d  c #2b392d",
"f  c #2b3a2e",
"g  c #2b3c2d",
"h  c #2c392d",
"j  c #2d392e",
"k  c #2c3a2d",
"l  c #2c3b2f",
"z  c #2d3d2f",
"x  c #2e3d2f",
"c  c #2f3d30",
"v  c #2f3f31",
"b  c #2f3f32",
"n  c #303c31",
"m  c #303f31",
"M  c #303f33",
"N  c #323e33",
"B  c #2f4032",
"V  c #314033",
"C  c #324033",
"Z  c #314034",
"A  c #324135",
"S  c #334335",
"D  c #334535",
"F  c #334437",
"G  c #334637",
"H  c #344134",
"J  c #344336",
"K  c #344537",
"L  c #354536",
"P  c #374538",
"I  c #374639",
"U  c #374939",
"Y  c #37483a",
"T  c #374a3a",
"R  c #38493b",
"E  c #384b38",
"W  c #394c39",
"Q  c #384f3b",
"!  c #394d3d",
"~  c #3b4e3d",
"^  c #3a4f3e",
"/  c #3a4c3c",
"(  c #3c4f3f",
")  c #3b503d",
"_  c #3d513f",
"`  c #3c533f",
"'  c #3e503d",
"]  c #3e513e",
"[  c #3f523f",
"{  c #3e5141",
"}  c #3e5341",
"|  c #3d5440",
" . c #3d5442",
".. c #3f5441",
"X. c #3f5443",
"o. c #3f5842",
"O. c #405340",
"+. c #405441",
"@. c #405641",
"#. c #415743",
"$. c #425441",
"%. c #425542",
"&. c #425643",
"*. c #405544",
"=. c #415645",
"-. c #425744",
";. c #425746",
":. c #445643",
">. c #445744",
",. c #415943",
"<. c #415844",
"1. c #425945",
"2. c #435847",
"3. c #425a45",
"4. c #435b46",
"5. c #435c47",
"6. c #445945",
"7. c #445946",
"8. c #455a47",
"9. c #465845",
"0. c #465946",
"q. c #465a47",
"w. c #455d47",
"e. c #435a48",
"r. c #445948",
"t. c #455a49",
"y. c #455b4a",
"u. c #465b48",
"i. c #465b4a",
"p. c #455c48",
"a. c #455e48",
"s. c #465c49",
"d. c #475c4b",
"f. c #465e48",
"g. c #475e4a",
"h. c #495b48",
"j. c #485b4b",
"k. c #485c49",
"l. c #485d4a",
"z. c #485f4b",
"x. c #4b5d4a",
"c. c #4a5e4b",
"v. c #485d4c",
"b. c #495e4d",
"n. c #4a5f4c",
"m. c #505f53",
"M. c #47604b",
"N. c #47604c",
"B. c #48614b",
"V. c #4a614b",
"C. c #49604c",
"Z. c #49624c",
"A. c #4a614d",
"S. c #4b614e",
"D. c #4a624d",
"F. c #4b624e",
"G. c #49654e",
"H. c #4a644d",
"J. c #4b644e",
"K. c #4a664f",
"L. c #4d614e",
"P. c #4c634f",
"I. c #4c654f",
"U. c #4c664f",
"Y. c #4b6750",
"T. c #4d6151",
"R. c #4e6350",
"E. c #4c6550",
"W. c #4d6650",
"Q. c #4e6551",
"!. c #4e6751",
"~. c #4f6752",
"^. c #4c6851",
"/. c #4d6952",
"(. c #4e6851",
"). c #4f6852",
"_. c #4e6a53",
"`. c #4f6b54",
"'. c #506753",
"]. c #506953",
"[. c #506a53",
"{. c #506954",
"}. c #516a54",
"|. c #526b55",
" X c #526b56",
".X c #506c55",
"XX c #516d56",
"oX c #536c56",
"OX c #526e57",
"+X c #556d57",
"@X c #536f58",
"#X c #556d58",
"$X c #546f58",
"%X c #566d59",
"&X c #566f5a",
"*X c #556959",
"=X c #547059",
"-X c #55715a",
";X c #56715a",
":X c #59725c",
">X c #607164",
",X c #637767",
"<X c #758677",
"1X c #768778",
"2X c #778979",
"3X c #778a7a",
"4X c #78897a",
"5X c #798b7b",
"6X c #798a7d",
"7X c #7b8b7f",
"8X c #7b8c7d",
"9X c #7c8c7f",
"0X c #7d8e7f",
"qX c #7d8d80",
"wX c #7f8e80",
"eX c #7f8e82",
"rX c #7d9080",
"tX c #7e9181",
"yX c #808f81",
"uX c #819383",
"iX c #829484",
"pX c #839787",
"aX c #849787",
"sX c #859889",
"dX c #879a8a",
"fX c #889b8b",
"gX c #899c8c",
"hX c #8a9c8d",
"jX c #8ea191",
/* pixels */
"n n n n c c c n A A A A A A A A C A A A A A A n c z z B A L L L L F F F L Y ^ ^ W ^ ^ ! ^ ^ ^ ^ ^ *X,X",
"n t.8.t.8.2.t.t.t.;.;.;.2.;.t.t.2.2.2.t.t.;.;.X.{ { ;.s.s.s.8.s.w.2.w.B.I.).!.!.).).).).oX=X@X`.).).iX",
"P l.t.l.t.8.t.t.t.2.2.t.t.b.s.t.t.t.2.;.;.;.2.;.X.2.s.s.2.2.s.l.s.B.A.!.!.K.A.!.).).`.oXoX^.K.K.^.).gX",
"P t.8.t.8.8.;.t.t.;.;.;.t.s.s.t.t.t.2.;.;.;.t.2.2.8.l.l.s.l.A.A.A.A.A.A.K.!. XoXoX`.).^.Y.Y.`.;X=X=XdX",
"A 8.8.8.8.2.X.2.2.;.;.t.b.b.t.2.;.;.;.;.;.t.t.t.s.l.b.l.B.s.s.s.l.A.A.K.!. X X).K.G.K.).`.`.`.oX).).iX",
"J s.s.s.u - - - 2.t.t.Y - - = X.;.A = = ; < ; ; a s.8.= = t 5.A.K.^ < d  X Xl < : ) I.).3 3 3 !.).!.iX",
"J t.s.t.;       L t.e.=       l.l.C             = ' X.      F ). XL   < K.K.<     A I.I.      B.K.K.uX",
"L 8.8.8.=       5 t.t.X       T.A.c     + W ) X.2.s.L.      X ( !.A   < A.K.<     C B.M.      I.A.A.0X",
"c #.2.#.=         T.t.        X.W t     = 2.l.!.!.!.'.        O A.C   < A.l.<     B s.s.      2.2.,.0X",
"c 8.t.8.-   O     n 8 . .     W W i     X < 3 < !.!.!.    X     a n   < s.8.=     c B.B.      ,.o.o.0X",
"l s.l.s.;   0 X   <   + #     #.5.B             !.L.A.    u     X 5   = #.#.=     C B.8.      ,.s.s.gX",
"C L.l.L.;   l $       l -     A.).P     < !.K.s.s.2.8.    l.-         = j.l.;     l #.X.      +X:X:XjX",
"J #.' #.$   t e       R <     #X XL     : M.M.s.s.s.b.    ;.Y         < A.s.=     g s.A.      ;X;X#XdX",
"a E W E +   t A       #X5     A.s.z     < s.t.t.j.t.2.    X.;.P       - X.X.d     O ).d     4 oXoXoXdX",
"t X.8.X.-   B !.5 5 n #X<     t.l.C               8.8.    8.8.A.0     = s.A. Xc           + o.oX`.`.fX",
"C !.!.!.d < {  X#XoXI.2.t = = 8.8.L = = = = ; = ; l.8.= = 2.s.s.' 9 < c #X#X X!.F w < < e N.`.`.oXoXdX",
"R A.I.A.I.!.'.!.s.2.#.;.,.8.2.;.#.#.#.>.8.8.8.8.2.#.#.2.s.B.A.I.].#X#XoX!.K.!.).^.K.K.).oXoXoX`.`.`.aX",
"n L.l.L.l.8.' O.;.8.l.8.#.#.X.X.#.#.8.j.l.l.l.s.B.I.A.B.I.].+X X).!.!.!.!.).!.Y.K.K.).`.oX`.).`.).).dX",
"n #.' O.' ' 8.j.l.j.:.O.' #.#.8.l.L.L.A.A.B.B.A.A.B.B.].+X].B.M.I. X X).K.K.).).).).`.oXoX`.).).).^.aX",
"a ;.8.;.8.t.8.t.8.:.8.l.A.A.A.A.A.w.2.s.A.A.s.s.A.). X!.A.B.A.!. X+X X).).].).).K.).).).).K.K.K.I.K.aX",
"m.m.>X7X7X0XwXwXyXwX0X8X4X<X<X1X2X4X8X8X4X2X2XrXrXrX0X8X8X0XrXuXiXiXuXrXrXrXrX0X8X8X8X8X8X8X8X8X8XuXiX"
};
