/* Made with GIMP */
#define bitmap_width 20
#define bitmap_height 20
#define bitmap_x_hot 9
#define bitmap_y_hot 9
static char cursor_resize_h_bits[] = {
   0x00, 0x00, 0x00, 0x00, 0x00, 0x00, 0x00, 0x00, 0x00, 0x40, 0x20, 0x00,
   0x60, 0x60, 0x00, 0x50, 0xa0, 0x00, 0x48, 0x20, 0x01, 0xc4, 0x3f, 0x02,
   0x02, 0x00, 0x04, 0x01, 0x00, 0x08, 0x02, 0x00, 0x04, 0xc4, 0x3f, 0x02,
   0x48, 0x20, 0x01, 0x50, 0xa0, 0x00, 0x60, 0x60, 0x00, 0x40, 0x20, 0x00,
   0x00, 0x00, 0x00, 0x00, 0x00, 0x00, 0x00, 0x00, 0x00, 0x00, 0x00, 0x00 };
