#define cursor_width 16
#define cursor_height 16
#define cursor_x_hot 1
#define cursor_y_hot 1
static unsigned char cursor_bits[] = {
   0x03, 0x00, 0x0d, 0x00, 0x32, 0x00, 0xc2, 0x00, 0x04, 0x03, 0x04, 0x0c,
   0x08, 0x30, 0x08, 0xc0, 0x10, 0x30, 0x10, 0x08, 0x20, 0x10, 0x20, 0x22,
   0x40, 0x45, 0x40, 0x89, 0x80, 0x50, 0x80, 0x20};
