#define bitmap_width 16
#define bitmap_height 16
#define bitmap_x_hot 8
#define bitmap_y_hot 8
static char bitmap_bits[] = {
   0x00, 0x00, 0x80, 0x02, 0xa0, 0x08, 0x00, 0x17, 0xc0, 0x3c, 0x08, 0x3b,
   0xd2, 0x7e, 0xa4, 0x7d, 0x70, 0x7b, 0xaa, 0x7e, 0xd8, 0x3f, 0xac, 0x3f,
   0xf8, 0x1f, 0xf0, 0x0f, 0xc0, 0x03, 0x00, 0x00 };
