/* Made with GIMP */
#define bitmap_width 18
#define bitmap_height 18
#define bitmap_x_hot 8
#define bitmap_y_hot 8
static char cursor_resize_h_bits[] = {
   0x00, 0xff, 0x03, 0x00, 0x02, 0x02, 0x00, 0x04, 0x02, 0x00, 0x08, 0x02,
   0x00, 0x04, 0x02, 0x00, 0x02, 0x02, 0x00, 0x41, 0x02, 0x80, 0xa0, 0x02,
   0x41, 0x10, 0x03, 0x23, 0x08, 0x02, 0x15, 0x04, 0x00, 0x09, 0x02, 0x00,
   0x01, 0x01, 0x00, 0x81, 0x00, 0x00, 0x41, 0x00, 0x00, 0x81, 0x00, 0x00,
   0x01, 0x01, 0x00, 0xff, 0x03, 0x00 };
