/* Created with The GIMP */
#define kill_width 16
#define kill_height 16
#define kill_x_hot 8
#define kill_y_hot 8
static unsigned short kill_bits[] = {
   0x0000, 0x1008, 0x2814, 0x6426, 0x324c, 0x1998, 0x0c30, 0x0660, 0x0420,
   0x0990, 0x13c8, 0x2664, 0x4c32, 0x381c, 0x1008, 0x0000 };
