/* XPM */
static char * blank_xpm[] = {
"32 32 6 1",
" 	c None",
".	c #000000",
"+	c #FFFFFF",
"@	c #666666",
"#	c #D5D5D5",
"$	c #888888",
"................................",
".+++++++++++++++++++++++++++++@.",
".+############################@.",
".+#$##########################@.",
".+##+#########################@.",
".+############################@.",
".+#$##$#######################@.",
".+##+##+######################@.",
".+############################@.",
".+#$##$##$####################@.",
".+##+##+##+###################@.",
".+############################@.",
".+#$##$##$##$#################@.",
".+##+##+##+##+################@.",
".+############################@.",
".+#$##$##$##$##$##############@.",
".+##+##+##+##+##+#############@.",
".+############################@.",
".+#$##$##$##$##$##$###########@.",
".+##+##+##+##+##+##+##########@.",
".+############################@.",
".+#$##$##$##$##$##$##$########@.",
".+##+##+##+##+##+##+##+#######@.",
".+############################@.",
".+#$##$##$##$##$##$##$##$#####@.",
".+##+##+##+##+##+##+##+##+####@.",
".+############################@.",
".+#$##$##$##$##$##$##$##$##$##@.",
".+##+##+##+##+##+##+##+##+##+#@.",
".+############################@.",
".@@@@@@@@@@@@@@@@@@@@@@@@@@@@@@.",
"................................"};
