#define lower_right_width 16
#define lower_right_height 16
#define resize_br_x_hot 11
#define resize_br_y_hot 11
static char lower_right_bits[] = {
  0x00, 0x00, 0x04, 0x30, 0x0e, 0x30, 0x1c, 0x30, 0x38, 0x30, 0x70, 0x34, 
  0xe0, 0x36, 0xc0, 0x37, 0x80, 0x37, 0xc0, 0x37, 0xe0, 0x37, 0x00, 0x30, 
  0xfe, 0x3f, 0xfe, 0x3f, 0x00, 0x00, 0x00, 0x00, };
