#define move_width 20
#define move_height 20
#define move_x_hot 9
#define move_y_hot 9
static unsigned char move_bits[] = {
   0x00, 0x07, 0x00, 0x00, 0x05, 0x00, 0x00, 0x05, 0x00, 0x00, 0x05, 0x00,
   0x00, 0x05, 0x00, 0x00, 0x02, 0x00, 0x00, 0x00, 0x00, 0x00, 0x00, 0x00,
   0x1f, 0xc2, 0x07, 0x21, 0x25, 0x04, 0x1f, 0xc2, 0x07, 0x00, 0x00, 0x00,
   0x00, 0x00, 0x00, 0x00, 0x02, 0x00, 0x00, 0x05, 0x00, 0x00, 0x05, 0x00,
   0x00, 0x05, 0x00, 0x00, 0x05, 0x00, 0x00, 0x07, 0x00, 0x00, 0x00, 0x00};
