#define resize_br_width 16
#define resize_br_height 16
#define resize_br_x_hot 7
#define resize_br_y_hot 7
static unsigned char resize_br_bits[] = {
   0xff, 0x01, 0x81, 0x00, 0x41, 0x00, 0x21, 0x00, 0x41, 0x00, 0x89, 0x00,
   0x15, 0x01, 0x23, 0x82, 0x41, 0xc4, 0x80, 0xa8, 0x00, 0x91, 0x00, 0x82,
   0x00, 0x84, 0x00, 0x82, 0x00, 0x81, 0x80, 0xff};
