#define cursor_width 16
#define cursor_height 16
#define cursor_x_hot 1
#define cursor_y_hot 1
static unsigned char cursor_bits[] = {
   0x03, 0x00, 0x0d, 0x00, 0x3a, 0x00, 0xc6, 0x00, 0x0c, 0x03, 0x14, 0x0c,
   0x28, 0x30, 0x58, 0xc0, 0xb0, 0xa0, 0x50, 0xd1, 0xa0, 0xaa, 0x60, 0xd5,
   0xc0, 0xa2, 0x40, 0xc1, 0x80, 0x80, 0x80, 0xff};
