#define move_width 16
#define move_height 16
#define move_x_hot 8
#define move_y_hot 7
static unsigned char move_bits[] = {
   0x00, 0x01, 0x00, 0x01, 0x80, 0x02, 0x40, 0x04, 0x80, 0x02, 0x90, 0x12,
   0xe8, 0x2e, 0x06, 0xc0, 0xe8, 0x2e, 0x90, 0x12, 0x80, 0x02, 0x80, 0x02,
   0x40, 0x04, 0x80, 0x02, 0x00, 0x01, 0x00, 0x01};
