#define resize_tr_width 16
#define resize_tr_height 16
#define resize_tr_x_hot 7
#define resize_tr_y_hot 8
static unsigned char resize_tr_bits[] = {
   0x00, 0xf8, 0x00, 0xa8, 0x00, 0x90, 0x00, 0xcc, 0x00, 0xe6, 0x00, 0x13,
   0x80, 0x09, 0xc0, 0x04, 0x60, 0x02, 0x30, 0x01, 0x98, 0x00, 0x4b, 0x00,
   0x25, 0x00, 0x13, 0x00, 0x19, 0x00, 0x1f, 0x00};
