#define resize_h_width 16
#define resize_h_height 16
#define resize_h_x_hot 8
#define resize_h_y_hot 8
static unsigned char resize_h_bits[] = {
   0x00, 0x00, 0x00, 0x00, 0x00, 0x00, 0x00, 0x00, 0x00, 0x00, 0x00, 0x00,
   0x04, 0x20, 0xfa, 0x5f, 0x01, 0x80, 0xfa, 0x5f, 0x04, 0x20, 0x00, 0x00,
   0x00, 0x00, 0x00, 0x00, 0x00, 0x00, 0x00, 0x00};
