#define resize_v_width 16
#define resize_v_height 16
#define resize_v_x_hot 7
#define resize_v_y_hot 8
static unsigned char resize_v_bits[] = {
   0x80, 0x00, 0x40, 0x01, 0x20, 0x02, 0x40, 0x01, 0x40, 0x01, 0x40, 0x01,
   0x40, 0x01, 0x40, 0x01, 0x40, 0x01, 0x40, 0x01, 0x40, 0x01, 0x40, 0x01,
   0x40, 0x01, 0x20, 0x02, 0x40, 0x01, 0x80, 0x00};
