/* XPM */
static char * letters_xpm[] = {
"155 18 3 1",
" 	c None",
".	c #30343D",
"+	c #FFFFFF",
".....+..............+.........++........+....+.+..+....+...................................................................................................",
".....+..............+.........+.........+.........+....+........................................+..........................................................",
".+++.+.++...++....+++...+++...+....+++..++++.+.+..+.+..+.+++++.++++..+++..++++...+++..+++.+++...+...+..+......+......+....+....+++.........................",
"...+.++.+..+.....+..+..+...+..+...+..+..+..+.+.+..+++..+.+.+.+.+..+.+...+.+..+..+..+..+...+.....+...+..+.++...++++....++...++...+..........................",
"++++.+..+..+.....+..+..+++++..+...+..+..+....+.+..++...+.+.+.+.+..+.+...+.+..+..+..+..+....+++..+...+..+.++....+++...+++...++..+...........................",
"++++.++++...+++...+++...+++...+....+++..+....+.+....+..+.......+..+..+++...++....+++..+...++++..+++..+++..+....+.+..+..++..+...++++........................",
".....................................+.........+...........................................................................+...............................",
".....................................+.........+...........................................................................................................",
"...........................................................................................................................................................",
"...........................................................................................................................................................",
"...........................................................................................................................................................",
"...........................................................................................................................................................",
"...........................................................................................................................................................",
"...........................................................................................................................................................",
"...........................................................................................................................................................",
"...........................................................................................................................................................",
"...........................................................................................................................................................",
"..........................................................................................................................................................."};
