#define lower_left_width 16
#define lower_left_height 16
#define resize_br_x_hot 4
#define resize_br_y_hot 11
static char lower_left_bits[] = {
 0x00,0x00,0x0c,0x20,0x0c,0x70,0x0c,0x38,0x0c,0x1c,0x2c,0x0e,0x6c,0x07,0xec,
 0x03,0xec,0x01,0xec,0x03,0xec,0x07,0x0c,0x00,0xfc,0x7f,0xfc,0x7f,0x00,0x00,
 0x00,0x00};
