/* Created with The GIMP */
#define grabber_hand_width 16
#define grabber_hand_height 16
#define grabber_hand_x_hot 8
#define grabber_hand_y_hot 8
static unsigned char grabber_hand_bits[] = {
   0x00, 0x00, 0x80, 0x01, 0x98, 0x0d, 0x98, 0x0d, 0xb0, 0x4d, 0xb0, 0x6d,
   0xe0, 0x6f, 0xe6, 0x7f, 0xfe, 0x3f, 0xfc, 0x3f, 0xf8, 0x3f, 0xf8, 0x1f,
   0xf0, 0x1f, 0xe0, 0x0f, 0xc0, 0x0f, 0xc0, 0x0f };
