/* Made with Gimp */
#define bitmap_width 10
#define bitmap_height 16
#define kill_x_hot 1
#define kill_y_hot 1
static char bitmap_bits[] = {
   0xfc, 0x03, 0xfa, 0x03, 0xf6, 0x03, 0xee, 0x03, 0xde, 0x03, 0xbe, 0x03,
   0x7e, 0x03, 0xfe, 0x02, 0xfe, 0x01, 0x3e, 0x00, 0xb6, 0x03, 0x6a, 0x03,
   0x6c, 0x03, 0xdf, 0x02, 0xdf, 0x02, 0x3f, 0x03 };
