#define resize_v_width 15
#define resize_v_height 24
#define move_x_hot 7
#define move_y_hot 12
static unsigned char resize_v_bits[] = {
  0x00, 0x00, 0xfe, 0x3f, 0xfe, 0x3f, 0x00, 0x00, 0xbf, 0x7e, 0xdf, 0x7d,
  0xaf, 0x7a, 0x97, 0x74, 0xab, 0x6a, 0xb3, 0x66, 0xbf, 0x7e, 0xbf, 0x7e,
  0xbf, 0x7e, 0xbf, 0x7e, 0xb3, 0x66, 0xab, 0x6a, 0x97, 0x74, 0xaf, 0x7a,
  0xdf, 0x7d, 0xbf, 0x7e, 0x00, 0x00, 0xfe, 0x3f, 0xfe, 0x3f, 0x00, 0x00,
  };
