#define resize_h_width 24
#define resize_h_height 15
#define move_x_hot 12
#define move_y_hot 7
static unsigned char resize_h_bits[] = {
  0xf0, 0xff, 0x0f, 0xf6, 0xff, 0x6f, 0xf6, 0x3c, 0x6f, 0x76, 0xbd, 0x6e,
  0xb6, 0x7e, 0x6d, 0x56, 0xff, 0x6a, 0x26, 0x00, 0x64, 0xf6, 0xff, 0x6f,
  0x26, 0x00, 0x64, 0x56, 0xff, 0x6a, 0xb6, 0x7e, 0x6d, 0x76, 0xbd, 0x6e,
  0xf6, 0x3c, 0x6f, 0xf6, 0xff, 0x6f, 0xf0, 0xff, 0x0f, };
