/* Made with GIMP */
#define max_width 25
#define max_height 25
#define max_x_hot 1
#define max_y_hot 6
static short max_bits[] = {
   0x0000, 0x0000, 0xf800, 0x00ff, 0xf800, 0x00ff, 0x0800, 0x0080, 0x0800,
   0x009c, 0x0800, 0x0098, 0x0800, 0x0094, 0xf800, 0x0081, 0x0800, 0x0081,
   0x0803, 0x0081, 0x080d, 0x0081, 0xf832, 0x00ff, 0x00c6, 0x0000, 0x030c,
   0x0000, 0x0c14, 0x0000, 0x3028, 0x0000, 0xc058, 0x0000, 0x80b0, 0x0000,
   0x4150, 0x0000, 0x22a0, 0x0000, 0x4560, 0x0000, 0x8ac0, 0x0000, 0x5540,
   0x0000, 0x2a80, 0x0000, 0x1180, 0x0000 };
