/* Made with GIMP */
#define stick_width 25
#define stick_height 25
#define move_x_hot 1
#define move_y_hot 6
static short stick_bits[] = {
   0x8000, 0x01ff, 0x8000, 0x0150, 0x0000, 0x00a9, 0x0000, 0x0052, 0x0000,
   0x002c, 0x8003, 0x0199, 0x000d, 0x002c, 0x0032, 0x0052, 0x00c6, 0x00a9,
   0x830c, 0x0150, 0x8c14, 0x01ff, 0x3028, 0x0000, 0xc058, 0x0000, 0x80b0,
   0x0000, 0x4150, 0x0000, 0x22a0, 0x0000, 0x4560, 0x0000, 0x8ac0, 0x0000,
   0x5540, 0x0000, 0x2a80, 0x0000, 0x1180, 0x0000, 0x0000, 0x0000, 0x0000,
   0x0000, 0x0000, 0x0000, 0x0000, 0x0000 };
