/* Made with GIMP */
#define crsr_plain_width 20
#define crsr_plain_height 23
static char crsr_plain_bits[] = {
   0x1f, 0x00, 0x00, 0xff, 0x07, 0x00, 0xeb, 0x3f, 0x00, 0xb7, 0xfe, 0x00,
   0x1e, 0xea, 0x01, 0xae, 0xa4, 0x03, 0x1c, 0x52, 0x03, 0xbc, 0x84, 0x07,
   0x58, 0x11, 0x06, 0xb8, 0x44, 0x07, 0x70, 0x11, 0x06, 0xf0, 0x86, 0x06,
   0xe0, 0x55, 0x03, 0xc0, 0xab, 0x03, 0x80, 0xcf, 0x01, 0x00, 0xff, 0x00,
   0x00, 0x38, 0x00, 0x00, 0x00, 0x00, 0x00, 0x00, 0x00, 0x00, 0x00, 0x00,
   0x00, 0x00, 0x00, 0x00, 0x00, 0x00, 0x00, 0x00, 0x00 };
