#define glue_width 16
#define glue_height 16
#define resize_v_x_hot 8
#define resize_v_y_hot 8
static char glue_bits[] = {
   0x00, 0x00, 0x00, 0x00, 0xe0, 0x07, 0x10, 0x08, 0xd0, 0x0b, 0x28, 0x14,
   0xfc, 0x3f, 0x04, 0x20, 0xb4, 0x2a, 0x04, 0x20, 0xfc, 0x3f, 0x08, 0x10,
   0x10, 0x08, 0xe0, 0x07, 0x00, 0x00, 0x00, 0x00 };
