#define shade_width 16
#define shade_height 16
#define resize_v_x_hot 7
#define resize_v_y_hot 7
static char shade_bits[] = {
   0x00, 0x38, 0x00, 0x44, 0x00, 0xba, 0x00, 0xa9, 0x80, 0xa8, 0x40, 0x48,
   0x20, 0x24, 0x10, 0x12, 0x08, 0x09, 0x84, 0x04, 0x42, 0x02, 0x21, 0x01,
   0x91, 0x00, 0x49, 0x00, 0x26, 0x00, 0x1c, 0x00 };
