#define slide_width 16
#define slide_height 16
#define resize_v_x_hot 8
#define resize_v_y_hot 8
static char slide_bits[] = {
   0x00, 0x00, 0x21, 0x52, 0x00, 0x00, 0x21, 0x92, 0x00, 0x00, 0xff, 0xff,
   0x01, 0x80, 0x21, 0x84, 0x21, 0x84, 0x01, 0x80, 0xff, 0xff, 0x00, 0x00,
   0x21, 0x92, 0x00, 0x00, 0x21, 0x52, 0x00, 0x00 };
