/* Made with GIMP */
#define pin_width 20
#define pin_height 20
#define pin_x_hot 1
#define pin_y_hot 20
static char pin_bits[] = {
   0x00, 0x0c, 0x00, 0x00, 0x12, 0x00, 0x00, 0x22, 0x00, 0x00, 0x44, 0x00,
   0x00, 0x88, 0x00, 0x00, 0x04, 0x01, 0x30, 0xa2, 0x02, 0x48, 0x41, 0x05,
   0x88, 0xa8, 0x0a, 0x10, 0x50, 0x0d, 0x20, 0x2a, 0x06, 0x40, 0x14, 0x00,
   0xc0, 0x0a, 0x00, 0xa0, 0x15, 0x00, 0x50, 0x2a, 0x00, 0x28, 0x34, 0x00,
   0x14, 0x18, 0x00, 0x0a, 0x00, 0x00, 0x05, 0x00, 0x00, 0x03, 0x00, 0x00 };
