/* XPM */
static char * frame_bottom_xpm[] = {
"80 12 17 1",
" 	c None",
".	c #02020A",
"+	c #CBCBCB",
"@	c #8D8D8D",
"#	c #757575",
"$	c #9F9F9F",
"%	c #D2D7E1",
"&	c #999999",
"*	c #3F3F3F",
"=	c #C3C3C3",
"-	c #1B628B",
";	c #808080",
">	c #125075",
",	c #7B7B7B",
"'	c #083D5E",
")	c #03314F",
"!	c #556A79",
".+@#........................................................................#@+.",
".+@##########################################################################@+.",
".+@@@@@@@@@@@@@@@@@@@@@@@@@@@@@@@@@@@@@@@@@@@@@@@@@@@@@@@@@@@@@@@@@@@@@@@@@@@$+.",
".%+++++++++++++++++++++++++++++++++++++++++++++++&&&&&&&&&&&&&&&&&&&*&*&*&&&&$+.",
" ................................................+@@@@@@@@@@@@@@@@@@@=@=@=@@@$+.",
"     .-------------------------------------------.+;;;;;;;;;;;;;;;;;;;*;*;;;;$+.",
"      .>>>>>>>>>>>>>>>>>>>>>>>>>>>>>>>>>>>>>>>>>>>.+,,,,,,,,,,,,,,,,,,,=,=,,,$+.",
"       .'''''''''''''''''''''''''''''''''''''''''''.+;;;;;;;;;;;;;;;;;;;*;;;;$+.",
"        .))))))))))))))))))))))))))))))))))))))))))).+@@@@@@@@@@@@@@@@@@@=@@@$+.",
"         .!!!!!!!!!!!!!!!!!!!!!!!!!!!!!!!!!!!!!!!!!!!.+$$$$$$$$$$$$$$$$$$$$$$$+.",
"          .............................................+++++++++++++++++++++++. ",
"                                                       .......................  "};
