/* XPM */
static char * frame_top_xpm[] = {
"80 16 31 1",
" 	c None",
".	c #000000",
"+	c #C1C1C1",
"@	c #C9C9C9",
"#	c #CBCBCB",
"$	c #9F9F9F",
"%	c #D5D5D5",
"&	c #7D7D7D",
"*	c #999999",
"=	c #797979",
"-	c #8D8D8D",
";	c #6E6E6E",
">	c #778691",
",	c #808080",
"'	c #656565",
")	c #667885",
"!	c #878787",
"~	c #7B7B7B",
"{	c #606060",
"]	c #556A79",
"^	c #757575",
"/	c #5C5C5C",
"(	c #002B47",
"_	c #03314F",
":	c #083D5E",
"<	c #125075",
"[	c #185C84",
"}	c #1B628B",
"|	c #3F3F3F",
"1	c #C3C3C3",
"2	c #686868",
".....................       ....                                        ....    ",
".+@#################$.     .###$.                                       .%##.   ",
".#$$$$$$$$$$$$$$$$$$&.     .#$$&.                                       .%$$$$. ",
".#******************=.......#**=.........................................%****#.",
".#------------------;.>>>>>.#--;.>>>>>>>>>>>>>>>>>>>>>>>>>>>>>>>>>>>>>>>.%----#.",
".#-,,,,,,,,,,,,,,,,,'.))))).#,,'.))))))))))))))))))))))))))))))))))))))).%!!!!#.",
".#-~~~~~~~~~~~~~~~~~{.]]]]].#~~{.]]]]]]]]]]]]]]]]]]]]]]]]]]]]]]]]]]]]]]].%~~~~#.",
".#-^^^^^^^^^^^^^^^^^/.(((((.#^^/.(((((((((((((((((((((((((((((((((((((((.%^^^^#.",
".#-^^^^^^^^^^^^^^^^^/._____.#^^/._______________________________________.%^^^^#.",
".#-^^^^^^^^^^^^^^^^^/.:::::.#^^/.:::::::::::::::::::::::::::::::::::::::.%^^^^#.",
".#-^^^^^^^^^^^^^^^^^/.......#^^/.<<<<<<<<<<<<<<<<<<<<<<<<<<<<<<<<<<<<<<<.%^^^^#.",
".#-^^^^^^^^^^^^^^^^^^#######^^^/.[[[[[[[[[[[[[[[[[[[[[[[[[[[[[[[[[[[[[[[.%^^^^#.",
".#-^^^^^^^^^^^^^^^^^^^^^^^^^^^^/.}}}}}}}}}}}}}}}}}}}}}}}}}}}}}}}}}}}}}}}.%^^^^#.",
".#-^^^^^^^^^^^^^^^^|^|^|^|^|^^^/.........................................%^^^-#.",
".#-^^^^^^^^^^^^^^^^^1^1^1^1^1^^^##########################################^^^-#.",
".#-2222222222222222222222222222222222222222222222222222222222222222222222222^-#."};
