/* Made with GIMP */
#define bitmap_width 20
#define bitmap_height 20
#define bitmap_x_hot 9
#define bitmap_y_hot 9
static char bitmap_bits[] = {
   0x00, 0x02, 0x00, 0x00, 0x05, 0x00, 0x80, 0x08, 0x00, 0x40, 0x10, 0x00,
   0x20, 0x20, 0x00, 0x10, 0x40, 0x00, 0xf8, 0xf8, 0x00, 0x80, 0x08, 0x00,
   0x80, 0x08, 0x00, 0x80, 0x08, 0x00, 0x80, 0x08, 0x00, 0x80, 0x08, 0x00,
   0x80, 0x08, 0x00, 0xf8, 0xf8, 0x00, 0x10, 0x40, 0x00, 0x20, 0x20, 0x00,
   0x40, 0x10, 0x00, 0x80, 0x08, 0x00, 0x00, 0x05, 0x00, 0x00, 0x02, 0x00 };
