#define cursor_width 11
#define cursor_height 19
#define cursor_x_hot 1
#define cursor_y_hot 1
static char cursor_bits[] = {
  0x01, 0x00, 0x03, 0x00, 0x05, 0x00, 0x09, 0x00, 0x11, 0x00, 0x21, 0x00, 
  0x41, 0x00, 0x81, 0x00, 0x01, 0x01, 0x01, 0x02, 0x01, 0x04, 0xc1, 0x07, 
  0x91, 0x00, 0x99, 0x00, 0x25, 0x01, 0x23, 0x01, 0x40, 0x02, 0x40, 0x02, 
  0x80, 0x03, };
