#define bitmap_width 11
#define bitmap_height 19
#define bitmap_x_hot 1
#define bitmap_y_hot 1
static char cursor_bits[] = {
 0x01,0xf8,0x03,0xf8,0x05,0xf8,0x09,0xf8,0x11,0xf8,0x21,0xf8,0x41,0xf8,0x81,
 0xf8,0x01,0xf9,0x01,0xfa,0xc1,0xff,0x49,0xf8,0x95,0xf8,0x93,0xf8,0x21,0xf9,
 0x20,0xf9,0x40,0xfa,0x40,0xfa,0x80,0xf9};
