#define sizens_width 12
#define sizens_height 19
#define resize_h_x_hot 6
#define resize_h_y_hot 9
static unsigned char sizens_bits[] = {
  0x60, 0x00, 0x90, 0x00, 0x08, 0x01, 0x04, 0x02, 0x02, 0x04, 0x91, 0x08,
  0x99, 0x09, 0x9f, 0x0f, 0x90, 0x00, 0x90, 0x00, 0x90, 0x00, 0x9f, 0x0f,
  0x99, 0x09, 0x91, 0x08, 0x02, 0x04, 0x04, 0x02, 0x08, 0x01, 0x90, 0x00,
  0x60, 0x00, };
