#define cursor_resize_h_width 19
#define cursor_resize_h_height 12
#define resize_h_x_hot 9
#define resize_h_y_hot 6
static char cursor_resize_h_bits[] = {
  0xe0, 0x38, 0x00, 0x90, 0x48, 0x00, 0x88, 0x88, 0x00, 0xc4, 0x18, 0x01, 
  0xe2, 0x3f, 0x02, 0x01, 0x00, 0x04, 0x01, 0x00, 0x04, 0xe2, 0x3f, 0x02, 
  0xc4, 0x18, 0x01, 0x88, 0x88, 0x00, 0x90, 0x48, 0x00, 0xe0, 0x38, 0x00, 
  };
