#define cursor_resize_nw_se_width 14
#define cursor_resize_nw_se_height 14
#define resize_h_x_hot 7
#define resize_h_y_hot 7
static char cursor_resize_nw_se_bits[] = {
  0xff, 0x01, 0x01, 0x01, 0x01, 0x01, 0xe1, 0x01, 0x41, 0x00, 0x89, 0x3c, 
  0x19, 0x25, 0x29, 0x26, 0x4f, 0x24, 0x80, 0x20, 0xe0, 0x21, 0x20, 0x20, 
  0x20, 0x20, 0xe0, 0x3f, };
