#define iconify_width 16
#define iconify_height 16
#define iconify_x_hot 7
#define iconify_y_hot 7
static unsigned char iconify_bits[] = {
   0x00, 0x00, 0xfe, 0x7f, 0x02, 0x40, 0x02, 0x40, 0x02, 0x40, 0x02, 0x40,
   0x02, 0x40, 0x02, 0x40, 0x02, 0x40, 0x02, 0x40, 0x02, 0x40, 0x02, 0x78,
   0x02, 0x78, 0x02, 0x78, 0xfe, 0x7f, 0x00, 0x00};
