#define move_width 16
#define move_height 16
#define move_x_hot 7
#define move_y_hot 7
static unsigned char move_bits[] = {
   0x00, 0x00, 0x80, 0x00, 0xc0, 0x01, 0x80, 0x00, 0x80, 0x00, 0x80, 0x00,
   0x84, 0x10, 0xfe, 0x3f, 0x84, 0x10, 0x80, 0x00, 0x80, 0x00, 0x80, 0x00,
   0xc0, 0x01, 0x80, 0x00, 0x00, 0x00, 0x00, 0x00};
