#define resize_br_width 16
#define resize_br_height 16
#define resize_br_x_hot 7
#define resize_br_y_hot 7
static unsigned char resize_br_bits[] = {
   0x00, 0x00, 0x7e, 0x00, 0x3e, 0x00, 0x1e, 0x00, 0x3e, 0x00, 0x76, 0x00,
   0xe2, 0x00, 0xc0, 0x01, 0x80, 0x03, 0x00, 0x47, 0x00, 0x6e, 0x00, 0x7c,
   0x00, 0x78, 0x00, 0x7c, 0x00, 0x7e, 0x00, 0x00};
