#define cursor2_width 16
#define cursor2_height 16
#define cursor_x_hot 16
#define cursor_y_hot 8
static unsigned char cursor2_bits[] = {
  0x00, 0x00, 0x00, 0x00, 0x00, 0x00, 0x00, 0x00, 0x07, 0x00, 0xf9, 0x00,
  0x81, 0x1f, 0x55, 0xf5, 0xab, 0x1e, 0xf9, 0x00, 0x07, 0x00, 0x00, 0x00,
  0x00, 0x00, 0x00, 0x00, 0x00, 0x00, 0x00, 0x00, };
