/* XPM */
static char * bg_panel_xpm[] = {
"68 9 91 1",
" 	c None",
".	c #05395B",
"+	c #3F4959",
"@	c #707987",
"#	c #7B899E",
"$	c #828A95",
"%	c #7A8696",
"&	c #777F8C",
"*	c #6B7D98",
"=	c #6E7785",
"-	c #667488",
";	c #5C7390",
">	c #646E7F",
",	c #5E718B",
"'	c #616D7C",
")	c #5F6976",
"!	c #586577",
"~	c #4D6383",
"{	c #535F73",
"]	c #505D72",
"^	c #4F5C70",
"/	c #4B5A6E",
"(	c #535F72",
"_	c #4D6484",
":	c #5D6877",
"<	c #49596E",
"[	c #41526A",
"}	c #3D4E66",
"|	c #404A59",
"1	c #424B59",
"2	c #444E5F",
"3	c #415269",
"4	c #354660",
"5	c #044C7F",
"6	c #043E5C",
"7	c #192F48",
"8	c #1B2C3E",
"9	c #1B2B3D",
"0	c #182A3E",
"a	c #193049",
"b	c #053A5C",
"c	c #1A2D43",
"d	c #17293D",
"e	c #142538",
"f	c #132438",
"g	c #142639",
"h	c #054164",
"i	c #102236",
"j	c #044366",
"k	c #60738C",
"l	c #526178",
"m	c #47586C",
"n	c #44566C",
"o	c #3D4D65",
"p	c #3C4756",
"q	c #084E9C",
"r	c #064E8B",
"s	c #064D83",
"t	c #044D81",
"u	c #2D3E52",
"v	c #064F8D",
"w	c #3A4659",
"x	c #394354",
"y	c #3A4455",
"z	c #04497D",
"A	c #054970",
"B	c #04476D",
"C	c #16273B",
"D	c #122337",
"E	c #0C2131",
"F	c #0A1D2D",
"G	c #051B29",
"H	c #021A24",
"I	c #071B2C",
"J	c #0E2132",
"K	c #053C5B",
"L	c #43546A",
"M	c #44556B",
"N	c #464F5D",
"O	c #044567",
"P	c #05456E",
"Q	c #054062",
"R	c #04405F",
"S	c #17283C",
"T	c #0B1F2F",
"U	c #051A28",
"V	c #0E2233",
"W	c #0B1E2E",
"X	c #071C2C",
"Y	c #04486F",
"Z	c #021825",
".+@#$%&*@@@=-;>;,>')!~{]^/^(_::!<[}||1233}45678877798909a.bbbcdefg8h",
"ij{;k'!l^mn[[2}oo|p4qrst5utv4w4xrssrvqxyyyyqtzABh6addCed9dgDEFGHIJgC",
"EKL~!l/MN+4qvvsss5zBOjjOjPPPPPOjQRb77ab.a.aa8SgeffefDJJETTFGIGUID7b7",
"T7+<<M}pquzBOOjjhQ6K6QhQR666K.780dSSCCCefiVVTWEVffeDVTTXXGGGGUGXD9SV",
"Ecv+|ysuBjhQR66KKKbbK66Kb77880SgeeefDiJTFXWWTTEiEEJiDDfffVVJVETJ96cf",
"WghAYPhR6b.a777aa778890dSddSgfiVJETWWFXIGUUUHUUGGIFWTEJfCeggfDDCaR7V",
"JSKK.7c89900000ddSCgefffffDiJETWFFXXFWTWFXGUGUHHGXWEVieS99c887.QzAQ0",
"Dg0c7c7cc900dSCeeeefDiiiDDiiVETWFXGUUUUUHHZHUGXWJVDfggC87..a77a..a0f",
"9c9cc890dSSCCgfDVJETWWWWFFFXXIGGGGGGIIGHZZZHUIFTJDfeDDDVEJEiffiDieeg"};
