/* XPM */
static char * frame_bottom_xpm[] = {
"80 5 118 2",
"  	c None",
". 	c #000000",
"+ 	c #1B2B3D",
"@ 	c #16273B",
"# 	c #102236",
"$ 	c #0E2233",
"% 	c #0E2132",
"& 	c #182A3E",
"* 	c #04405F",
"= 	c #054970",
"- 	c #064E8B",
"; 	c #3F4959",
"> 	c #444E5F",
", 	c #3A4659",
"' 	c #064F8D",
") 	c #2D3E52",
"! 	c #04476D",
"~ 	c #044366",
"{ 	c #054062",
"] 	c #043E5C",
"^ 	c #053A5C",
"/ 	c #193049",
"( 	c #142639",
"_ 	c #132438",
": 	c #142538",
"< 	c #122337",
"[ 	c #0B1F2F",
"} 	c #0C2131",
"| 	c #17283C",
"1 	c #1B2C3E",
"2 	c #17293D",
"3 	c #1A2D43",
"4 	c #021119",
"5 	c #053C5B",
"6 	c #05456E",
"7 	c #044C7F",
"8 	c #41526A",
"9 	c #586577",
"0 	c #5C7390",
"a 	c #6B7D98",
"b 	c #7B8797",
"c 	c #848E9E",
"d 	c #828A95",
"e 	c #7D848C",
"f 	c #78808C",
"g 	c #627793",
"h 	c #61748D",
"i 	c #626E7D",
"j 	c #5D6876",
"k 	c #535F72",
"l 	c #49596D",
"m 	c #3D4E66",
"n 	c #354660",
"o 	c #044D81",
"p 	c #04497D",
"q 	c #04486F",
"r 	c #05395B",
"s 	c #0B1E2E",
"t 	c #0A1D2D",
"u 	c #071C2C",
"v 	c #071B2C",
"w 	c #192F48",
"x 	c #044567",
"y 	c #03121D",
"z 	c #464F5D",
"A 	c #6E7E99",
"B 	c #8693A6",
"C 	c #A4ADB8",
"D 	c #AFB4BC",
"E 	c #B3B8C0",
"F 	c #B3B8C1",
"G 	c #B6BBC3",
"H 	c #B2B7BF",
"I 	c #A3ACB7",
"J 	c #99A4B2",
"K 	c #8E9BAD",
"L 	c #8C99AB",
"M 	c #8491A5",
"N 	c #7C8DA3",
"O 	c #7A8696",
"P 	c #6C7D98",
"Q 	c #5A6677",
"R 	c #535F73",
"S 	c #49596E",
"T 	c #46576C",
"U 	c #43546A",
"V 	c #3D4D65",
"W 	c #084E9C",
"X 	c #051B29",
"Y 	c #064D83",
"Z 	c #394354",
"` 	c #021621",
" .	c #000103",
"..	c #47586C",
"+.	c #7A889D",
"@.	c #7D8EA4",
"#.	c #8390A5",
"$.	c #6A778A",
"%.	c #6A7483",
"&.	c #667488",
"*.	c #646E7F",
"=.	c #616D7C",
"-.	c #646C75",
";.	c #4D6484",
">.	c #505D71",
",.	c #4B5A6E",
"'.	c #404A59",
").	c #021723",
"!.	c #000308",
"~.	c #00080D",
"{.	c #010C12",
"].	c #010D14",
"^.	c #020F16",
"/.	c #00090F",
"(.	c #000A0F",
"_.	c #000608",
":.	c #000206",
"<.	c #00070A",
". + @ # $ % % & * = - ; > , ' ) = ! ~ { ] ^ / + + @ ( ( _ : < $ $ % % % [ } % $ % % % $ } $ $ # $ < < < _ < # _ ( < : : : ( ( @ | & & 1 2 @ | & 3 ^ ] { ~ & 4 . ",
". ^ 3 2 5 6 7 8 9 0 a b c d e f g 0 h i j 9 k l 8 m n - o p q { ] r 1 & ( < % } s t u v u u u u s s % # : @ | 2 + 1 1 3 w / / r r r r w / 5 x 6 p 7 7 o 7 r y . ",
". ( : | p z 9 A B C D E F F G H C I I J K L M N O P 0 j Q R S T U > V ; W 6 ] * 5 3 2 ( _ $ [ t u v X u [ $ _ @ | + 1 ^ ^ * ~ x ! = q q ) Y W Z n , , n W ] `  .",
". 5 * ~ ) Z m ..k +.@.#.#.d @.c O O e a $.%.&.*.*.*.=.-.-.;.>.,...T 8 z '.Z ' ' - 7 q ! { ] r 1 2 @ _ _ # < _ # % % $ # < : ( 2 2 & + 3 ^ { p 7 - W Z W Y ^ y . ",
").!.~.{.].].{.^.y ` y ^.{.]./.].(././._._._.:.:.:._.<._.<.:. . . . . . . .. . . . . . . . . . . . . . . . . . . . . . . . . . . . . . . .  .. . . . . . . . . . "};
