/* XPM */
static char * frame_top_xpm[] = {
"80 5 115 2",
"  	c None",
". 	c #000103",
"+ 	c #102236",
"@ 	c #043E5C",
"# 	c #16273B",
"$ 	c #0E2132",
"% 	c #0E2233",
"& 	c #122337",
"* 	c #000608",
"= 	c #000000",
"- 	c #020F16",
"; 	c #000206",
"> 	c #193049",
", 	c #053A5C",
"' 	c #192F48",
") 	c #054970",
"! 	c #2D3E52",
"~ 	c #064D83",
"{ 	c #394354",
"] 	c #424B59",
"^ 	c #41526A",
"/ 	c #44566C",
"( 	c #47586C",
"_ 	c #49596D",
": 	c #4B5A6E",
"< 	c #4F5C70",
"[ 	c #505D71",
"} 	c #505D72",
"| 	c #535F72",
"1 	c #535F73",
"2 	c #526178",
"3 	c #4D6383",
"4 	c #4D6484",
"5 	c #586476",
"6 	c #586577",
"7 	c #5A6677",
"8 	c #5B6776",
"9 	c #5D6876",
"0 	c #5F6976",
"a 	c #636B76",
"b 	c #646C75",
"c 	c #616D7C",
"d 	c #61748D",
"e 	c #6B7D98",
"f 	c #7A828D",
"g 	c #808A98",
"h 	c #8B98AA",
"i 	c #98A3B1",
"j 	c #A3ACB7",
"k 	c #A7AFBA",
"l 	c #B3B8C0",
"m 	c #B3B8C1",
"n 	c #B6BBC3",
"o 	c #BBC0C8",
"p 	c #CED0D5",
"q 	c #DADCDE",
"r 	c #D2D4D9",
"s 	c #C2C7CC",
"t 	c #848E9E",
"u 	c #646E7F",
"v 	c #464F5D",
"w 	c #021723",
"x 	c #054062",
"y 	c #1A2D43",
"z 	c #142538",
"A 	c #05395B",
"B 	c #04476D",
"C 	c #084E9C",
"D 	c #354660",
"E 	c #3A4659",
"F 	c #3C4756",
"G 	c #3F4959",
"H 	c #404A59",
"I 	c #3D4D65",
"J 	c #3D4E66",
"K 	c #415269",
"L 	c #43546A",
"M 	c #49596E",
"N 	c #4E5B6F",
"O 	c #5D6877",
"P 	c #6F7886",
"Q 	c #737F93",
"R 	c #7B899E",
"S 	c #828A95",
"T 	c #7C8DA3",
"U 	c #8794A6",
"V 	c #96A2B0",
"W 	c #8E9BAD",
"X 	c #627793",
"Y 	c #04405F",
"Z 	c #1B2B3D",
"` 	c #132438",
" .	c #0B1F2F",
"..	c #0B1E2E",
"+.	c #17293D",
"@.	c #182A3E",
"#.	c #1B2C3E",
"$.	c #044366",
"%.	c #05456E",
"&.	c #04486F",
"*.	c #04497D",
"=.	c #044C7F",
"-.	c #064E8B",
";.	c #064F8D",
">.	c #3A4455",
",.	c #44556B",
"'.	c #17283C",
").	c #010D14",
"!.	c #0C2131",
"~.	c #142639",
"{.	c #053C5B",
"].	c #054164",
"^.	c #044567",
"/.	c #044D81",
"(.	c #010E16",
". + @ # + $ % + & . * * . = = = = = = = = = = = = = = = = = = = = = = = = = = = = = = = = = . = = = = = = = = = = = = = = = = = = = = = = = = - ; ; ; ; . . . ; ",
"= > , # & % % % + # ' ) ! ~ { ] ^ / / ( _ : < < [ } } | 1 1 2 3 4 5 4 3 4 5 6 7 7 7 7 7 8 9 9 9 0 0 0 a b a a a c d e f g h i j k l m n o p q r s k t u v @ w * ",
"= x y z + % % % + y A A > @ B ~ C { { D E F G G G G H ] I H I J v v ^ K ^ L / _ M M : N < < < [ 1 | | 1 1 1 3 3 5 7 O c c d P e Q R S T U V i W S X < D Y % - ; ",
"= A Z z + % % + & ` +  ...% z +.Z @.@.Z Z #.' ' > ' ' > A A > A @ Y x x x $.%.%.&.) *.*.! =.=.~ -.;.C { { >.E F G G ] ] ] I v ^ ,.: | 4 1 3 M ,.G =.@ Z '...).. ",
"= A @.` + % $ + ` & ` & & % % + !.$  .!.!.!. .!. . ...!.!.!.....!.$ $ + % ` z ~.'.+.Z #.#.' ' > A A , , {.@ @ Y x x x ].$.^.%.) ) ! ! /.! %.{.A Z +.# +.y ` (.= "};
