#define kill_width 16
#define kill_height 16
static unsigned char kill_bits[] = {
  0x00, 0x00, 0x00, 0x00, 0x10, 0x18, 0x38, 0x34, 0x4c, 0x32, 0x98, 0x19,
  0x30, 0x0c, 0x60, 0x06, 0x20, 0x04, 0x90, 0x09, 0xc8, 0x13, 0x64, 0x26,
  0x38, 0x1c, 0x10, 0x08, 0x00, 0x00, 0x00, 0x00, };
