#define cursor_width 16
#define cursor_height 16
#define move_x_hot 1
#define move_y_hot 1
static unsigned char cursor_bits[] = {
  0xe7, 0xff, 0xd7, 0xff, 0xb7, 0xff, 0x77, 0xff, 0xf7, 0xfe, 0xf7, 0xfd,
  0xf7, 0xfb, 0xf7, 0xf7, 0xf7, 0xef, 0xf7, 0xe1, 0xb7, 0xfd, 0x57, 0xfb,
  0x67, 0xfb, 0xff, 0xf6, 0xff, 0xf6, 0xff, 0xf9, };
