#define resize_br_width 25
#define resize_br_height 25
#define move_x_hot 12
#define move_y_hot 12
static unsigned char resize_br_bits[] = {
  0x00, 0x00, 0xff, 0x01, 0xfe, 0x7f, 0xff, 0x01, 0xfe, 0x7f, 0xff, 0x01,
  0x06, 0x00, 0xff, 0x01, 0xf6, 0xff, 0xff, 0x01, 0x16, 0xc0, 0xff, 0x01,
  0xd6, 0xdf, 0xff, 0x01, 0xd6, 0xc0, 0xff, 0x01, 0x56, 0xfd, 0xff, 0x01,
  0x56, 0xfa, 0x1f, 0x00, 0x56, 0xf5, 0xdf, 0x00, 0x56, 0xeb, 0xd1, 0x00,
  0x56, 0xd7, 0xd5, 0x00, 0x16, 0xaf, 0xd5, 0x00, 0xf6, 0x5f, 0xd5, 0x00,
  0xf0, 0xbf, 0xd4, 0x00, 0xff, 0x7f, 0xd5, 0x00, 0xff, 0x07, 0xd6, 0x00,
  0xff, 0xf7, 0xd7, 0x00, 0xff, 0x07, 0xd0, 0x00, 0xff, 0xff, 0xdf, 0x00,
  0xff, 0x01, 0xc0, 0x00, 0xff, 0xfd, 0xff, 0x00, 0xff, 0xfd, 0xff, 0x00,
  0xff, 0x01, 0x00, 0x00, };
